<svg width="50" height="50" viewBox="0 0 50 50" fill="none" xmlns="http://www.w3.org/2000/svg">
<rect width="50" height="50" rx="15" fill="url(#paint0_linear_204_20)"/>
<path d="M28.9181 38C28.6078 36.7783 28.3491 35.5693 28.1422 34.373C27.9612 33.1767 27.806 31.9931 27.6767 30.8223C27.5474 29.626 27.431 28.4298 27.3276 27.2335C27.2241 26.0372 27.1207 24.8282 27.0172 23.6065C26.9655 22.792 26.8879 22.0538 26.7845 21.3921C26.7069 20.7303 26.5905 20.1449 26.4353 19.6358C26.2802 19.1268 26.0862 18.6941 25.8534 18.3377C25.6207 17.9814 25.3362 17.7141 25 17.536C24.6897 17.3578 24.3147 17.2687 23.875 17.2687C23.4095 17.2687 22.9828 17.3705 22.5948 17.5742C22.2328 17.7778 21.9483 18.0705 21.7414 18.4523C21.5345 18.8341 21.431 19.2922 21.431 19.8267C21.431 20.3612 21.5474 20.8321 21.7802 21.2394C22.0129 21.6466 22.3621 21.9648 22.8276 22.1938C23.2931 22.3975 23.8621 22.4993 24.5345 22.4993C25.1034 22.4993 25.75 22.4229 26.4741 22.2702C27.2241 22.1175 27.9871 21.8757 28.7629 21.5448L29.5388 26.5463C28.5819 26.9535 27.6379 27.2589 26.7069 27.4626C25.7759 27.6662 24.8448 27.768 23.9138 27.768C22.3362 27.768 20.9526 27.5007 19.7629 26.9662C18.5733 26.4317 17.6422 25.63 16.9698 24.5609C16.3233 23.4919 16 22.1811 16 20.6285C16 19.0504 16.3491 17.6123 17.0474 16.3142C17.7716 14.9907 18.7672 13.9471 20.0345 13.1836C21.3276 12.3945 22.8147 12 24.4957 12C25.9957 12 27.2371 12.2927 28.2198 12.8781C29.2284 13.4381 30.0172 14.2271 30.5862 15.2452C31.1552 16.2379 31.569 17.3833 31.8276 18.6814C32.1121 19.954 32.2931 21.3157 32.3707 22.7665C32.5 24.37 32.6034 25.8081 32.681 27.0808C32.7845 28.3279 32.8879 29.5115 32.9914 30.6314C33.0948 31.7259 33.2241 32.8076 33.3793 33.8766C33.5345 34.9457 33.7414 36.0783 34 37.2746L28.9181 38Z" fill="#344D67"/>
<defs>
<linearGradient id="paint0_linear_204_20" x1="1.86265e-07" y1="50" x2="50" y2="1.86265e-07" gradientUnits="userSpaceOnUse">
<stop stop-color="#6ECCAF"/>
<stop offset="0.519517" stop-color="#ADE792"/>
<stop offset="1" stop-color="#F3ECB0"/>
</linearGradient>
</defs>
</svg>